<svg xmlns="http://www.w3.org/2000/svg" viewBox="0 0 200 200">
  <!-- Definitions for gradients and filters -->
  <defs>
    <!-- Main gradient for bubble -->
    <linearGradient id="bubbleGradient" x1="0%" y1="0%" x2="100%" y2="100%">
      <stop offset="0%" style="stop-color:#42b883;stop-opacity:1" />
      <stop offset="100%" style="stop-color:#3aa776;stop-opacity:1" />
    </linearGradient>
    
    <!-- Accent gradient for Vue logo -->
    <linearGradient id="vueGradient" x1="0%" y1="0%" x2="0%" y2="100%">
      <stop offset="0%" style="stop-color:#34495e;stop-opacity:1" />
      <stop offset="100%" style="stop-color:#2c3e50;stop-opacity:1" />
    </linearGradient>
    
    <!-- Soft glow filter -->
    <filter id="glow" x="-20%" y="-20%" width="140%" height="140%">
      <feGaussianBlur stdDeviation="2" result="glow"/>
      <feMerge>
        <feMergeNode in="glow"/>
        <feMergeNode in="SourceGraphic"/>
      </feMerge>
    </filter>
  </defs>

  <!-- Subtle background circle -->
  <circle cx="100" cy="100" r="70" fill="#f8f9fa" opacity="0.1"/>
  
  <!-- Enhanced Chat Bubble Base -->
  <path 
    d="M40 80 
       C40 50, 70 30, 100 30
       C130 30, 160 50, 160 80
       C160 110, 130 130, 100 130
       L90 130 L80 150 L70 130
       L60 130
       C45 130, 40 110, 40 80Z"
    fill="url(#bubbleGradient)"
    stroke="#34495E"
    stroke-width="1.5"
    filter="url(#glow)"
  />

  <!-- Refined Vue.js Logo -->
  <g transform="translate(0, 0)">
    <!-- Outer chevron -->
    <path 
      d="M85 60 L100 85 L115 60 L125 60 L100 100 L75 60Z"
      fill="url(#vueGradient)"
      opacity="0.9"
    />
    <!-- Inner chevron -->
    <path 
      d="M95 60 L100 70 L105 60 L110 60 L100 80 L90 60Z"
      fill="#42b883"
      opacity="0.9"
    />
  </g>

  <!-- Enhanced message dots with animation -->
  <g>
    <circle cx="80" cy="110" r="4">
      <animate attributeName="opacity" values="1;0.3;1" dur="2s" repeatCount="indefinite" begin="0s"/>
      <animate attributeName="r" values="4;3.5;4" dur="2s" repeatCount="indefinite" begin="0s"/>
    </circle>
    <circle cx="100" cy="110" r="4">
      <animate attributeName="opacity" values="1;0.3;1" dur="2s" repeatCount="indefinite" begin="0.3s"/>
      <animate attributeName="r" values="4;3.5;4" dur="2s" repeatCount="indefinite" begin="0.3s"/>
    </circle>
    <circle cx="120" cy="110" r="4">
      <animate attributeName="opacity" values="1;0.3;1" dur="2s" repeatCount="indefinite" begin="0.6s"/>
      <animate attributeName="r" values="4;3.5;4" dur="2s" repeatCount="indefinite" begin="0.6s"/>
    </circle>
  </g>

  <!-- Refined decorative elements -->
  <g stroke="#42b883" stroke-width="1.5" stroke-linecap="round">
    <!-- Top right decoration -->
    <path d="M140 40 L150 30 M145 30 L150 30 L150 35" opacity="0.6">
      <animate attributeName="opacity" values="0.6;0.3;0.6" dur="3s" repeatCount="indefinite"/>
    </path>
    <!-- Bottom left decoration -->
    <path d="M50 120 L40 130 M45 130 L40 130 L40 125" opacity="0.6">
      <animate attributeName="opacity" values="0.6;0.3;0.6" dur="3s" repeatCount="indefinite"/>
    </path>
  </g>

  <!-- Subtle tech pattern -->
  <g stroke="#42b883" stroke-width="0.5" opacity="0.1">
    <path d="M30 30 L50 30 M30 35 L45 35"/>
    <path d="M150 150 L170 150 M150 155 L165 155"/>
  </g>
</svg>